<?xml version="1.0" encoding="UTF-8"?>
<!-- Generator: Blender, SVG Export for Grease Pencil - v1.0 -->
<!DOCTYPE svg PUBLIC "-//W3C//DTD SVG 1.1//EN" "http://www.w3.org/Graphics/SVG/1.1/DTD/svg11.dtd">
<svg version="1.0" x="0px" y="0px" xmlns="http://www.w3.org/2000/svg" width="730px" height="825px" viewBox="0 0 730 825">
	<g id="blender_frame_1">
		<g id="blender_object_GPencil.034">
			<!--Layer: Plane_001_Fills-->
			<g id="Plane_001_Fills">
				<polygon fill="#7A6AC7" stroke="none" fill-opacity="1" points="407.361359,51.275879 385.632904,52.072632 385.632904,71.451843 407.361359,71.355774" />
				<polygon fill="#7A6AC7" stroke="none" fill-opacity="1" points="424.642303,52.421509 424.642303,71.800659 505.322601,71.704651 505.322601,213.198975 526.309570,213.198975 524.300171,71.704651 525.285400,51.624817 506.307892,51.624817" />
				<polygon fill="#7A6AC7" stroke="none" fill-opacity="1" points="303.781281,73.196045 303.781281,77.940491 325.270599,77.940491 325.270599,73.196045 370.181549,71.425598 370.181549,51.345703 326.424347,52.421509 304.935028,52.421509" />
				<polygon fill="#7A6AC7" stroke="none" fill-opacity="1" points="303.781281,97.755310 303.502228,111.709351 324.991486,111.709351 325.270599,97.755310" />
				<polygon fill="#7A6AC7" stroke="none" fill-opacity="1" points="303.502228,130.128723 303.502228,212.457764 324.991486,212.457764 324.991486,130.128723" />
				<polygon fill="#7A6AC7" stroke="none" fill-opacity="1" points="367.318878,260.831909 367.318878,237.575134 324.991486,237.575134 324.991486,230.598022 303.502228,230.598022 303.502228,237.575134 303.502228,260.831909 324.991486,260.831909" />
				<polygon fill="#7A6AC7" stroke="none" fill-opacity="1" points="385.691742,260.831909 406.157745,260.366760 406.157745,237.109985 385.691742,237.575134" />
				<polygon fill="#7A6AC7" stroke="none" fill-opacity="1" points="424.298065,260.134216 443.368561,260.134216 443.368561,236.877380 424.298065,236.877380" />
				<polygon fill="#7A6AC7" stroke="none" fill-opacity="1" points="527.093140,236.877380 527.093140,231.760925 505.231659,231.760925 505.231659,236.877380 461.974030,236.877380 461.974030,260.134216 505.231659,260.134216 527.093140,260.134216" />
				<polygon fill="#7A6AC7" stroke="none" fill-opacity="1" points="381.873322,99.364624 373.445038,99.673584 373.445038,107.190491 381.873322,107.153259" />
				<polygon fill="#7A6AC7" stroke="none" fill-opacity="1" points="456.062469,98.434326 447.634369,98.743347 447.634369,106.260193 456.062469,106.222961" />
				<polygon fill="#7A6AC7" stroke="none" fill-opacity="1" points="456.527618,200.066467 448.099396,200.375549 448.099396,207.892456 456.527618,207.855225" />
				<polygon fill="#7A6AC7" stroke="none" fill-opacity="1" points="382.338348,201.694519 373.910248,202.003601 373.910248,209.520447 382.338348,209.483215" />
				<polygon fill="#7A6AC7" stroke="none" fill-opacity="1" points="566.447388,64.388367 552.830688,64.775269 552.830688,74.185303 566.447388,74.138733" />
				<polygon fill="#7A6AC7" stroke="none" fill-opacity="1" points="568.121826,127.739929 554.505127,128.126831 554.505127,137.536865 568.121826,137.490173" />
				<polygon fill="#7A6AC7" stroke="none" fill-opacity="1" points="568.959106,165.136841 555.342407,165.523743 555.342407,174.933777 568.959106,174.887146" />
				<polygon fill="#7A6AC7" stroke="none" fill-opacity="1" points="600.478760,116.006531 592.811768,116.281677 592.811768,122.973999 600.478760,122.940857" />
				<polygon fill="#7A6AC7" stroke="none" fill-opacity="1" points="158.752167,670.431824 150.612274,582.831177 189.179718,577.986023 193.976898,604.591614 205.430878,602.265930 209.856354,641.800659 215.970367,641.214111 215.211334,633.300720 220.561737,632.787537 216.884796,599.940247 343.332062,580.962708 338.866730,559.705933 237.001923,575.985718 234.443756,535.518921 276.887360,534.588623 276.562592,420.035461 251.677826,418.640076 248.281525,331.737701 528.581421,311.676147 548.769653,299.401703 569.119263,285.835236 575.094971,277.436951 577.679077,248.204468 676.910889,245.297363 697.406616,245.297363 720.291260,224.533752 720.291260,198.411682 720.291260,13.953674 589.123047,13.953674 582.145996,10.000000 267.989532,10.000000 254.998627,84.638123 232.113922,80.730957 213.022858,207.818604 163.214630,237.083435 140.926727,305.497192 106.235443,308.791870 87.177704,204.620850 17.407379,209.304504 21.768036,273.099121 65.213043,265.023926 81.605194,378.546753 33.075897,383.377747 33.721924,438.160400 10.000000,443.462891 38.745422,597.795105 107.399506,584.120056 139.985077,815.579285 151.718414,801.674561 137.708160,708.563354 216.928314,696.643250 227.616730,689.713440 226.392670,675.871338 219.359528,676.545959 218.600433,668.632568 211.988251,669.266846 212.825409,681.340942 141.659576,689.713440 130.005157,581.608337 129.726105,564.863464 137.633392,564.398254 136.005341,543.699707 101.538788,546.676514 102.934235,564.584351 58.002075,572.956848 36.512756,455.742493 84.762909,450.206116 94.995880,529.744324 136.579010,524.999939 118.164825,372.251923 114.536774,339.607117 141.314423,336.312378 142.283417,349.103668 185.696075,346.777954 180.269501,277.201355 195.967865,277.201355 195.967865,258.983582 241.527924,258.983582 241.527924,275.650879 261.296173,275.650879 263.234283,211.307129 239.977509,207.818604 239.783661,190.003906 264.621918,193.631958 274.668854,122.745300 249.830597,119.117188 251.691193,103.767761 276.429413,106.446960 279.647430,86.602234 288.485687,32.099609 582.145996,32.099609 589.123047,36.053223 697.406616,36.053223 697.406616,198.411682 676.910889,198.411682 676.910889,224.868591 579.455688,224.868591 579.617188,216.793335 569.926758,217.116394 569.765259,230.036804 549.415649,230.036804 549.254150,270.815186 521.475220,281.959106 247.315094,295.322784 205.162079,298.552826 207.743622,333.352753 227.608856,330.445648 230.632233,405.513428 189.467682,410.164795 188.072296,394.350189 147.140350,396.210663 153.652252,452.957214 190.630524,451.096741 252.467743,446.445374 253.165436,510.866699 201.955841,512.959778 180.720551,514.122620 188.568817,573.474426 150.001312,578.319580 145.931366,578.901062 146.542328,583.412659 154.682220,671.013306" />
				<polygon fill="#7A6AC7" stroke="none" fill-opacity="1" points="151.718414,801.674561 139.985077,815.579285 247.710602,796.880859 227.616730,689.713440 216.928314,696.643250 230.938568,789.754517" />
				<polygon fill="#7A6AC7" stroke="none" fill-opacity="0.371425807" points="190.630524,451.096741 201.955841,512.959778 253.165436,510.866699 252.467743,446.445374" />
			</g>
			<!--Layer: Plane_001_Lines-->
			<g id="Plane_001_Lines" />
		</g>
	</g>
	<g id="blender_frame_1">
		<g id="blender_object_GPencil.061">
			<!--Layer: Circle_020_Fills-->
			<g id="Circle_020_Fills">
				<polygon fill="#E7E7E7" stroke="none" fill-opacity="1" points="325.307953,269.898499 323.700775,270.386047 322.219574,271.177734 320.921295,272.243225 319.855865,273.541443 319.064178,275.022644 318.576630,276.629822 318.412018,278.301208 318.576630,279.972595 319.064178,281.579773 319.855865,283.060944 320.921295,284.359222 322.219574,285.424652 323.700775,286.216339 325.307953,286.703888 326.979340,286.868469 328.650726,286.703888 330.257904,286.216339 331.739044,285.424652 333.037384,284.359222 334.102753,283.060944 334.894501,281.579773 335.382050,279.972595 335.546661,278.301208 335.382050,276.629822 334.894501,275.022644 334.102753,273.541443 333.037384,272.243225 331.739044,271.177734 330.257904,270.386047 328.650726,269.898499 326.979340,269.733887" />
			</g>
			<!--Layer: Circle_020_Lines-->
			<g id="Circle_020_Lines" />
		</g>
	</g>
	<g id="blender_frame_1">
		<g id="blender_object_GPencil.035">
			<!--Layer: Circle_020_Fills-->
			<g id="Circle_020_Fills">
				<polygon fill="#E7E7E7" stroke="none" fill-opacity="1" points="488.636627,720.379944 487.029510,720.867493 485.548248,721.659241 484.250031,722.724670 483.184601,724.022949 482.392914,725.504089 481.905365,727.111267 481.740753,728.782654 481.905365,730.454041 482.392914,732.061218 483.184601,733.542419 484.250031,734.840698 485.548248,735.906189 487.029510,736.697876 488.636627,737.185364 490.308014,737.349976 491.979462,737.185364 493.586639,736.697876 495.067780,735.906189 496.365997,734.840698 497.431488,733.542419 498.223297,732.061218 498.710785,730.454041 498.875336,728.782654 498.710785,727.111267 498.223297,725.504089 497.431488,724.022949 496.365997,722.724670 495.067780,721.659241 493.586639,720.867493 491.979462,720.379944 490.308014,720.215332" />
			</g>
			<!--Layer: Circle_020_Lines-->
			<g id="Circle_020_Lines" />
		</g>
	</g>
	<g id="blender_frame_1">
		<g id="blender_object_GPencil.060">
			<!--Layer: Circle_020_Fills-->
			<g id="Circle_020_Fills">
				<polygon fill="#E7E7E7" stroke="none" fill-opacity="1" points="374.497711,267.004944 372.890594,267.492493 371.409393,268.284180 370.111115,269.349670 369.045685,270.647888 368.253998,272.129089 367.766449,273.736267 367.601837,275.407654 367.766449,277.079102 368.253998,278.686218 369.045685,280.167419 370.111115,281.465698 371.409393,282.531128 372.890594,283.322815 374.497711,283.810364 376.169159,283.975006 377.840546,283.810364 379.447662,283.322815 380.928864,282.531128 382.227142,281.465698 383.292572,280.167419 384.084259,278.686218 384.571808,277.079102 384.736420,275.407654 384.571808,273.736267 384.084259,272.129089 383.292572,270.647888 382.227142,269.349670 380.928864,268.284180 379.447662,267.492493 377.840546,267.004944 376.169159,266.840393" />
			</g>
			<!--Layer: Circle_020_Lines-->
			<g id="Circle_020_Lines" />
		</g>
	</g>
	<g id="blender_frame_1">
		<g id="blender_object_GPencil.059">
			<!--Layer: Circle_020_Fills-->
			<g id="Circle_020_Fills">
				<polygon fill="#E7E7E7" stroke="none" fill-opacity="1" points="412.113495,265.847595 410.506256,266.335083 409.025116,267.126770 407.726837,268.192261 406.661346,269.490540 405.869659,270.971680 405.382172,272.578857 405.217499,274.250244 405.382172,275.921692 405.869659,277.528809 406.661346,279.010010 407.726837,280.308289 409.025116,281.373718 410.506256,282.165466 412.113495,282.652954 413.784821,282.817566 415.456207,282.652954 417.063446,282.165466 418.544586,281.373718 419.842865,280.308289 420.908295,279.010010 421.700043,277.528809 422.187592,275.921692 422.352142,274.250244 422.187592,272.578857 421.700043,270.971680 420.908295,269.490540 419.842865,268.192261 418.544586,267.126770 417.063446,266.335083 415.456207,265.847595 413.784821,265.682922" />
			</g>
			<!--Layer: Circle_020_Lines-->
			<g id="Circle_020_Lines" />
		</g>
	</g>
	<g id="blender_frame_1">
		<g id="blender_object_GPencil.058">
			<!--Layer: Circle_020_Fills-->
			<g id="Circle_020_Fills">
				<polygon fill="#E7E7E7" stroke="none" fill-opacity="1" points="451.465240,262.954102 449.858124,263.441589 448.376923,264.233337 447.078705,265.298767 446.013214,266.596985 445.221527,268.078186 444.733978,269.685364 444.569366,271.356750 444.733978,273.028137 445.221527,274.635315 446.013214,276.116516 447.078705,277.414734 448.376923,278.480225 449.858124,279.271912 451.465240,279.759399 453.136688,279.924072 454.808075,279.759399 456.415192,279.271912 457.896454,278.480164 459.194672,277.414734 460.260162,276.116516 461.051849,274.635315 461.539337,273.028137 461.704010,271.356750 461.539337,269.685364 461.051849,268.078186 460.260162,266.596985 459.194672,265.298767 457.896454,264.233337 456.415192,263.441589 454.808075,262.954102 453.136688,262.789429" />
			</g>
			<!--Layer: Circle_020_Lines-->
			<g id="Circle_020_Lines" />
		</g>
	</g>
	<g id="blender_frame_1">
		<g id="blender_object_GPencil.057">
			<!--Layer: Circle_020_Fills-->
			<g id="Circle_020_Fills">
				<polygon fill="#E7E7E7" stroke="none" fill-opacity="1" points="409.798615,143.741150 408.191437,144.228699 406.710297,145.020386 405.412079,146.085815 404.346588,147.384094 403.554901,148.865234 403.067413,150.472412 402.902740,152.143860 403.067413,153.815186 403.554901,155.422363 404.346588,156.903564 405.412079,158.201782 406.710297,159.267273 408.191437,160.058960 409.798615,160.546509 411.470062,160.711121 413.141449,160.546509 414.748566,160.058960 416.229828,159.267273 417.528046,158.201782 418.593536,156.903564 419.385223,155.422363 419.872711,153.815186 420.037384,152.143860 419.872711,150.472412 419.385223,148.865234 418.593536,147.384094 417.528046,146.085815 416.229828,145.020386 414.748566,144.228699 413.141449,143.741150 411.470062,143.576477" />
			</g>
			<!--Layer: Circle_020_Lines-->
			<g id="Circle_020_Lines" />
		</g>
	</g>
	<g id="blender_frame_1">
		<g id="blender_object_GPencil.056">
			<!--Layer: Circle_020_Fills-->
			<g id="Circle_020_Fills">
				<polygon fill="#E7E7E7" stroke="none" fill-opacity="1" points="435.261627,190.037354 433.654388,190.524902 432.173248,191.316650 430.874908,192.382080 429.809540,193.680359 429.017792,195.161560 428.530243,196.768677 428.365692,198.440063 428.530243,200.111511 429.017792,201.718689 429.809540,203.199829 430.874908,204.498108 432.173248,205.563538 433.654388,206.355286 435.261627,206.842773 436.933014,207.007446 438.604462,206.842773 440.211578,206.355286 441.692780,205.563538 442.990997,204.498108 444.056488,203.199829 444.848175,201.718689 445.335663,200.111511 445.500336,198.440063 445.335663,196.768677 444.848175,195.161560 444.056488,193.680359 442.990997,192.382080 441.692780,191.316650 440.211578,190.524902 438.604462,190.037354 436.933014,189.872803" />
			</g>
			<!--Layer: Circle_020_Lines-->
			<g id="Circle_020_Lines" />
		</g>
	</g>
	<g id="blender_frame_1">
		<g id="blender_object_GPencil.055">
			<!--Layer: Circle_020_Fills-->
			<g id="Circle_020_Fills">
				<polygon fill="#E7E7E7" stroke="none" fill-opacity="1" points="373.919037,213.185547 372.311859,213.673035 370.830719,214.464783 369.532379,215.530212 368.467010,216.828491 367.675201,218.309631 367.187714,219.916809 367.023041,221.588257 367.187714,223.259644 367.675201,224.866821 368.467010,226.348022 369.532379,227.646240 370.830719,228.711731 372.311859,229.503418 373.919037,229.990906 375.590485,230.155518 377.261810,229.990906 378.868988,229.503418 380.350128,228.711731 381.648468,227.646240 382.713898,226.348022 383.505585,224.866821 383.993134,223.259644 384.157745,221.588257 383.993134,219.916809 383.505585,218.309631 382.713898,216.828491 381.648468,215.530212 380.350128,214.464783 378.868988,213.673035 377.261810,213.185547 375.590485,213.020935" />
			</g>
			<!--Layer: Circle_020_Lines-->
			<g id="Circle_020_Lines" />
		</g>
	</g>
	<g id="blender_frame_1">
		<g id="blender_object_GPencil.054">
			<!--Layer: Circle_020_Fills-->
			<g id="Circle_020_Fills">
				<polygon fill="#E7E7E7" stroke="none" fill-opacity="1" points="413.849579,213.185547 412.242340,213.673035 410.761261,214.464783 409.462982,215.530212 408.397552,216.828491 407.605743,218.309631 407.118256,219.916809 406.953705,221.588257 407.118256,223.259644 407.605743,224.866821 408.397552,226.348022 409.462982,227.646240 410.761261,228.711731 412.242340,229.503418 413.849579,229.990906 415.520966,230.155518 417.192352,229.990906 418.799530,229.503418 420.280670,228.711731 421.579010,227.646240 422.644440,226.348022 423.436127,224.866821 423.923676,223.259644 424.088287,221.588257 423.923676,219.916809 423.436127,218.309631 422.644440,216.828491 421.579010,215.530212 420.280670,214.464783 418.799530,213.673035 417.192352,213.185547 415.520966,213.020935" />
			</g>
			<!--Layer: Circle_020_Lines-->
			<g id="Circle_020_Lines" />
		</g>
	</g>
	<g id="blender_frame_1">
		<g id="blender_object_GPencil.053">
			<!--Layer: Circle_020_Fills-->
			<g id="Circle_020_Fills">
				<polygon fill="#E7E7E7" stroke="none" fill-opacity="1" points="471.141205,213.185547 469.534088,213.673035 468.052826,214.464783 466.754608,215.530212 465.689178,216.828491 464.897491,218.309631 464.409943,219.916809 464.245331,221.588257 464.409943,223.259644 464.897491,224.866821 465.689178,226.348022 466.754608,227.646240 468.052826,228.711731 469.534088,229.503418 471.141205,229.990906 472.812592,230.155518 474.484039,229.990906 476.091156,229.503418 477.572357,228.711731 478.870575,227.646240 479.936066,226.348022 480.727753,224.866821 481.215302,223.259644 481.379913,221.588257 481.215302,219.916809 480.727753,218.309631 479.936066,216.828491 478.870575,215.530212 477.572357,214.464783 476.091156,213.673035 474.484039,213.185547 472.812592,213.020935" />
			</g>
			<!--Layer: Circle_020_Lines-->
			<g id="Circle_020_Lines" />
		</g>
	</g>
	<g id="blender_frame_1">
		<g id="blender_object_GPencil.052">
			<!--Layer: Circle_020_Fills-->
			<g id="Circle_020_Fills">
				<polygon fill="#E7E7E7" stroke="none" fill-opacity="1" points="607.136475,56.935547 605.529297,57.423096 604.048218,58.214783 602.750000,59.280273 601.684448,60.578552 600.892822,62.059753 600.405273,63.666931 600.240601,65.338318 600.405273,67.009705 600.892822,68.616882 601.684448,70.098022 602.750000,71.396301 604.048218,72.461792 605.529297,73.253418 607.136475,73.740967 608.807983,73.905640 610.479248,73.740967 612.086426,73.253418 613.567627,72.461792 614.865967,71.396301 615.931396,70.098022 616.723022,68.616882 617.210571,67.009705 617.375244,65.338318 617.210571,63.666931 616.723022,62.059753 615.931396,60.578552 614.865967,59.280273 613.567627,58.214783 612.086426,57.423096 610.479248,56.935547 608.807983,56.770996" />
			</g>
			<!--Layer: Circle_020_Lines-->
			<g id="Circle_020_Lines" />
		</g>
	</g>
	<g id="blender_frame_1">
		<g id="blender_object_GPencil.051">
			<!--Layer: Circle_020_Fills-->
			<g id="Circle_020_Fills">
				<polygon fill="#E7E7E7" stroke="none" fill-opacity="1" points="659.798462,75.454102 658.191284,75.941650 656.710205,76.733398 655.411865,77.798828 654.346436,79.097107 653.554688,80.578247 653.067139,82.185425 652.902588,83.856812 653.067139,85.528137 653.554688,87.135376 654.346436,88.616577 655.411865,89.914795 656.710205,90.980286 658.191284,91.771973 659.798462,92.259521 661.469971,92.424133 663.141357,92.259521 664.748413,91.771973 666.229614,90.980286 667.527954,89.914795 668.593384,88.616577 669.385132,87.135376 669.872559,85.528137 670.037231,83.856812 669.872559,82.185425 669.385132,80.578186 668.593384,79.097107 667.527954,77.798828 666.229614,76.733398 664.748413,75.941650 663.141357,75.454102 661.469971,75.289490" />
			</g>
			<!--Layer: Circle_020_Lines-->
			<g id="Circle_020_Lines" />
		</g>
	</g>
	<g id="blender_frame_1">
		<g id="blender_object_GPencil.050">
			<!--Layer: Circle_020_Fills-->
			<g id="Circle_020_Fills">
				<polygon fill="#E7E7E7" stroke="none" fill-opacity="1" points="659.798462,138.532837 658.191284,139.020386 656.710205,139.812012 655.411865,140.877502 654.346436,142.175781 653.554688,143.656921 653.067139,145.264099 652.902588,146.935486 653.067139,148.606873 653.554688,150.214050 654.346436,151.695251 655.411865,152.993469 656.710205,154.058960 658.191284,154.850647 659.798462,155.338196 661.469971,155.502808 663.141357,155.338196 664.748413,154.850647 666.229614,154.058960 667.527954,152.993469 668.593384,151.695251 669.385132,150.214050 669.872559,148.606873 670.037231,146.935486 669.872559,145.264099 669.385132,143.656921 668.593384,142.175781 667.527954,140.877502 666.229614,139.812012 664.748413,139.020386 663.141357,138.532837 661.469971,138.368164" />
			</g>
			<!--Layer: Circle_020_Lines-->
			<g id="Circle_020_Lines" />
		</g>
	</g>
	<g id="blender_frame_1">
		<g id="blender_object_GPencil.049">
			<!--Layer: Circle_020_Fills-->
			<g id="Circle_020_Fills">
				<polygon fill="#E7E7E7" stroke="none" fill-opacity="1" points="656.905029,199.296692 655.297852,199.784180 653.816650,200.575867 652.518311,201.641357 651.452881,202.939636 650.661133,204.420776 650.173706,206.027954 650.009033,207.699341 650.173706,209.370789 650.661133,210.977905 651.452881,212.459106 652.518311,213.757385 653.816650,214.822815 655.297852,215.614563 656.905029,216.102051 658.576416,216.266663 660.247803,216.102051 661.854980,215.614563 663.336060,214.822815 664.634399,213.757385 665.699829,212.459106 666.491577,210.977905 666.979126,209.370789 667.143677,207.699341 666.979126,206.027954 666.491577,204.420776 665.699829,202.939636 664.634399,201.641357 663.336060,200.575867 661.854980,199.784180 660.247803,199.296692 658.576416,199.132019" />
			</g>
			<!--Layer: Circle_020_Lines-->
			<g id="Circle_020_Lines" />
		</g>
	</g>
	<g id="blender_frame_1">
		<g id="blender_object_GPencil.048">
			<!--Layer: Circle_020_Fills-->
			<g id="Circle_020_Fills">
				<polygon fill="#E7E7E7" stroke="none" fill-opacity="1" points="540.585571,196.403137 538.978394,196.890686 537.497314,197.682373 536.199097,198.747864 535.133545,200.046082 534.341919,201.527283 533.854248,203.134460 533.689697,204.805847 533.854248,206.477234 534.341919,208.084412 535.133545,209.565613 536.199097,210.863831 537.497314,211.929260 538.978394,212.721008 540.585571,213.208496 542.257080,213.373169 543.928467,213.208496 545.535522,212.721008 547.016846,211.929260 548.315063,210.863831 549.380493,209.565613 550.172241,208.084412 550.659668,206.477234 550.824341,204.805847 550.659668,203.134460 550.172241,201.527283 549.380493,200.046082 548.315063,198.747864 547.016846,197.682373 545.535522,196.890686 543.928467,196.403137 542.257080,196.238525" />
			</g>
			<!--Layer: Circle_020_Lines-->
			<g id="Circle_020_Lines" />
		</g>
	</g>
	<g id="blender_frame_1">
		<g id="blender_object_GPencil.047">
			<!--Layer: Circle_020_Fills-->
			<g id="Circle_020_Fills">
				<polygon fill="#E7E7E7" stroke="none" fill-opacity="1" points="540.585571,95.708740 538.978394,96.196289 537.497314,96.987915 536.199097,98.053406 535.133545,99.351685 534.341919,100.832825 533.854248,102.440002 533.689697,104.111389 533.854248,105.782837 534.341919,107.390015 535.133545,108.871155 536.199097,110.169434 537.497314,111.234863 538.978394,112.026611 540.585571,112.514160 542.257080,112.678772 543.928467,112.514160 545.535522,112.026611 547.016846,111.234863 548.315063,110.169434 549.380493,108.871155 550.172241,107.390015 550.659668,105.782837 550.824341,104.111389 550.659668,102.440002 550.172241,100.832825 549.380493,99.351685 548.315063,98.053406 547.016846,96.987915 545.535522,96.196289 543.928467,95.708740 542.257080,95.544128" />
			</g>
			<!--Layer: Circle_020_Lines-->
			<g id="Circle_020_Lines" />
		</g>
	</g>
	<g id="blender_frame_1">
		<g id="blender_object_GPencil.046">
			<!--Layer: Circle_020_Fills-->
			<g id="Circle_020_Fills">
				<polygon fill="#E7E7E7" stroke="none" fill-opacity="1" points="393.595001,73.718018 391.987762,74.205505 390.506622,74.997253 389.208344,76.062683 388.142853,77.360962 387.351166,78.842163 386.863617,80.449280 386.699005,82.120728 386.863617,83.792053 387.351166,85.399231 388.142853,86.880493 389.208344,88.178711 390.506622,89.244141 391.987762,90.035828 393.595001,90.523376 395.266327,90.688049 396.937714,90.523376 398.544952,90.035828 400.026093,89.244141 401.324371,88.178711 402.389740,86.880493 403.181549,85.399231 403.669037,83.792053 403.833710,82.120728 403.669037,80.449280 403.181549,78.842102 402.389862,77.360962 401.324371,76.062683 400.026093,74.997253 398.544952,74.205505 396.937714,73.718018 395.266327,73.553345" />
			</g>
			<!--Layer: Circle_020_Lines-->
			<g id="Circle_020_Lines" />
		</g>
	</g>
	<g id="blender_frame_1">
		<g id="blender_object_GPencil.045">
			<!--Layer: Circle_020_Fills-->
			<g id="Circle_020_Fills">
				<polygon fill="#E7E7E7" stroke="none" fill-opacity="1" points="414.428253,33.787476 412.821136,34.275024 411.339874,35.066711 410.041656,36.132202 408.976227,37.430420 408.184540,38.911560 407.696991,40.518799 407.532379,42.190125 407.696991,43.861511 408.184540,45.468750 408.976227,46.949890 410.041656,48.248108 411.339874,49.313599 412.821136,50.105286 414.428253,50.592834 416.099640,50.757446 417.771088,50.592834 419.378204,50.105286 420.859406,49.313599 422.157623,48.248108 423.223114,46.949890 424.014801,45.468750 424.502350,43.861511 424.666962,42.190125 424.502350,40.518799 424.014801,38.911560 423.223114,37.430420 422.157623,36.132202 420.859406,35.066711 419.378204,34.275024 417.771088,33.787476 416.099640,33.622864" />
			</g>
			<!--Layer: Circle_020_Lines-->
			<g id="Circle_020_Lines" />
		</g>
	</g>
	<g id="blender_frame_1">
		<g id="blender_object_GPencil.044">
			<!--Layer: Circle_020_Fills-->
			<g id="Circle_020_Fills">
				<polygon fill="#E7E7E7" stroke="none" fill-opacity="1" points="349.034760,33.208740 347.427643,33.696289 345.946381,34.487976 344.648163,35.553467 343.582733,36.851746 342.791046,38.332825 342.303497,39.940063 342.138885,41.611450 342.303497,43.282837 342.791046,44.890015 343.582733,46.371155 344.648163,47.669434 345.946381,48.734924 347.427643,49.526611 349.034760,50.014160 350.706146,50.178772 352.377594,50.014160 353.984711,49.526611 355.465912,48.734924 356.764130,47.669434 357.829620,46.371155 358.621307,44.890015 359.108856,43.282837 359.273468,41.611450 359.108856,39.940063 358.621307,38.332825 357.829620,36.851746 356.764130,35.553467 355.465912,34.487976 353.984711,33.696289 352.377594,33.208740 350.706146,33.044128" />
			</g>
			<!--Layer: Circle_020_Lines-->
			<g id="Circle_020_Lines" />
		</g>
	</g>
	<g id="blender_frame_1">
		<g id="blender_object_GPencil.043">
			<!--Layer: Circle_020_Fills-->
			<g id="Circle_020_Fills">
				<polygon fill="#E7E7E7" stroke="none" fill-opacity="1" points="329.937592,111.912415 328.330353,112.399963 326.849213,113.191711 325.550934,114.257141 324.485504,115.555420 323.693817,117.036560 323.206268,118.643738 323.041656,120.315186 323.206268,121.986511 323.693817,123.593689 324.485504,125.074951 325.550934,126.373169 326.849213,127.438660 328.330353,128.230347 329.937592,128.717834 331.608978,128.882446 333.280304,128.717834 334.887543,128.230347 336.368683,127.438660 337.666962,126.373169 338.732452,125.074951 339.524139,123.593689 340.011688,121.986511 340.176300,120.315186 340.011688,118.643738 339.524139,117.036560 338.732452,115.555420 337.666962,114.257141 336.368683,113.191711 334.887543,112.399963 333.280304,111.912415 331.608978,111.747803" />
			</g>
			<!--Layer: Circle_020_Lines-->
			<g id="Circle_020_Lines" />
		</g>
	</g>
	<g id="blender_frame_1">
		<g id="blender_object_GPencil.042">
			<!--Layer: Circle_020_Fills-->
			<g id="Circle_020_Fills">
				<polygon fill="#E7E7E7" stroke="none" fill-opacity="1" points="287.692169,95.130066 286.085052,95.617615 284.603851,96.409302 283.305573,97.474731 282.240143,98.773010 281.448456,100.254211 280.960907,101.861389 280.796295,103.532715 280.960907,105.204102 281.448456,106.811340 282.240143,108.292480 283.305573,109.590698 284.603851,110.656189 286.085052,111.447876 287.692169,111.935425 289.363617,112.100037 291.035004,111.935425 292.642181,111.447876 294.123322,110.656189 295.421600,109.590698 296.487091,108.292480 297.278778,106.811340 297.766266,105.204102 297.930939,103.532715 297.766266,101.861389 297.278778,100.254150 296.487091,98.773010 295.421600,97.474731 294.123322,96.409302 292.642181,95.617615 291.035004,95.130066 289.363617,94.965454" />
			</g>
			<!--Layer: Circle_020_Lines-->
			<g id="Circle_020_Lines" />
		</g>
	</g>
	<g id="blender_frame_1">
		<g id="blender_object_GPencil.041">
			<!--Layer: Circle_020_Fills-->
			<g id="Circle_020_Fills">
				<polygon fill="#E7E7E7" stroke="none" fill-opacity="1" points="281.442169,189.574524 279.835052,190.062012 278.353851,190.853699 277.055634,191.919189 275.990143,193.217407 275.198456,194.698608 274.710907,196.305786 274.546295,197.977173 274.710907,199.648560 275.198456,201.255676 275.990143,202.736938 277.055634,204.035217 278.353851,205.100647 279.835052,205.892334 281.442169,206.379883 283.113617,206.544495 284.785004,206.379883 286.392181,205.892334 287.873322,205.100647 289.171600,204.035217 290.237091,202.736938 291.028778,201.255737 291.516266,199.648560 291.680939,197.977173 291.516266,196.305786 291.028778,194.698608 290.237091,193.217407 289.171600,191.919189 287.873322,190.853699 286.392181,190.062012 284.785004,189.574524 283.113617,189.409851" />
			</g>
			<!--Layer: Circle_020_Lines-->
			<g id="Circle_020_Lines" />
		</g>
	</g>
	<g id="blender_frame_1">
		<g id="blender_object_GPencil.040">
			<!--Layer: Circle_020_Fills-->
			<g id="Circle_020_Fills">
				<polygon fill="#E7E7E7" stroke="none" fill-opacity="1" points="218.942230,277.768921 217.335052,278.256409 215.853851,279.048157 214.555573,280.113586 213.490204,281.411865 212.698456,282.893036 212.210907,284.500214 212.046295,286.171631 212.210907,287.843018 212.698456,289.450165 213.490204,290.931335 214.555573,292.229614 215.853851,293.295105 217.335052,294.086792 218.942230,294.574280 220.613617,294.738922 222.285004,294.574280 223.892181,294.086792 225.373383,293.295105 226.671600,292.229614 227.737091,290.931335 228.528778,289.450165 229.016327,287.843018 229.180939,286.171631 229.016327,284.500214 228.528778,282.893036 227.737091,281.411865 226.671600,280.113586 225.373383,279.048157 223.892181,278.256409 222.285004,277.768921 220.613617,277.604309" />
			</g>
			<!--Layer: Circle_020_Lines-->
			<g id="Circle_020_Lines" />
		</g>
	</g>
	<g id="blender_frame_1">
		<g id="blender_object_GPencil.039">
			<!--Layer: Circle_020_Fills-->
			<g id="Circle_020_Fills">
				<polygon fill="#E7E7E7" stroke="none" fill-opacity="1" points="207.831146,359.713348 206.223907,360.200867 204.742767,360.992584 203.444489,362.058044 202.379059,363.356293 201.587311,364.837494 201.099762,366.444641 200.935150,368.116058 201.099762,369.787445 201.587311,371.394592 202.379059,372.875793 203.444489,374.174042 204.742767,375.239502 206.223907,376.031189 207.831146,376.518738 209.502533,376.683380 211.173859,376.518738 212.781097,376.031189 214.262238,375.239502 215.560516,374.174042 216.625946,372.875793 217.417694,371.394623 217.905243,369.787445 218.069855,368.116058 217.905243,366.444641 217.417694,364.837494 216.625946,363.356293 215.560516,362.058044 214.262238,360.992584 212.781097,360.200867 211.173859,359.713348 209.502533,359.548706" />
			</g>
			<!--Layer: Circle_020_Lines-->
			<g id="Circle_020_Lines" />
		</g>
	</g>
	<g id="blender_frame_1">
		<g id="blender_object_GPencil.038">
			<!--Layer: Circle_020_Fills-->
			<g id="Circle_020_Fills">
				<polygon fill="#E7E7E7" stroke="none" fill-opacity="1" points="164.081146,361.796692 162.473969,362.284210 160.992828,363.075928 159.694489,364.141357 158.629059,365.439636 157.837311,366.920807 157.349823,368.527985 157.185150,370.199371 157.349823,371.870789 157.837311,373.477936 158.629059,374.959137 159.694489,376.257385 160.992828,377.322845 162.473969,378.114532 164.081146,378.602081 165.752533,378.766693 167.423920,378.602081 169.031097,378.114532 170.512238,377.322845 171.810577,376.257385 172.875946,374.959137 173.667694,373.477936 174.155243,371.870789 174.319855,370.199371 174.155243,368.527985 173.667694,366.920807 172.875946,365.439636 171.810577,364.141357 170.512238,363.075928 169.031097,362.284210 167.423920,361.796692 165.752533,361.632080" />
			</g>
			<!--Layer: Circle_020_Lines-->
			<g id="Circle_020_Lines" />
		</g>
	</g>
	<g id="blender_frame_1">
		<g id="blender_object_GPencil.037">
			<!--Layer: Circle_020_Fills-->
			<g id="Circle_020_Fills">
				<polygon fill="#E7E7E7" stroke="none" fill-opacity="1" points="132.831146,399.991119 131.223969,400.478668 129.742828,401.270355 128.444489,402.335815 127.379059,403.634064 126.587372,405.115265 126.099823,406.722412 125.935211,408.393799 126.099823,410.065216 126.587372,411.672363 127.379059,413.153564 128.444489,414.451813 129.742828,415.517273 131.223969,416.308990 132.831146,416.796509 134.502533,416.961121 136.173920,416.796509 137.781097,416.308990 139.262238,415.517273 140.560577,414.451813 141.626007,413.153564 142.417694,411.672363 142.905243,410.065216 143.069855,408.393799 142.905243,406.722412 142.417694,405.115265 141.626007,403.634064 140.560577,402.335815 139.262238,401.270355 137.781097,400.478668 136.173920,399.991119 134.502533,399.826508" />
			</g>
			<!--Layer: Circle_020_Lines-->
			<g id="Circle_020_Lines" />
		</g>
	</g>
	<g id="blender_frame_1">
		<g id="blender_object_GPencil.036">
			<!--Layer: Circle_020_Fills-->
			<g id="Circle_020_Fills">
				<polygon fill="#E7E7E7" stroke="none" fill-opacity="1" points="144.636688,476.380005 143.029510,476.867493 141.548370,477.659241 140.250092,478.724670 139.184601,480.022949 138.392914,481.504089 137.905365,483.111267 137.740753,484.782715 137.905365,486.454041 138.392914,488.061218 139.184601,489.542419 140.250092,490.840698 141.548370,491.906189 143.029510,492.697815 144.636688,493.185364 146.308075,493.350037 147.979462,493.185364 149.586639,492.697815 151.067841,491.906189 152.366119,490.840698 153.431549,489.542419 154.223236,488.061218 154.710785,486.454041 154.875397,484.782715 154.710785,483.111267 154.223236,481.504089 153.431549,480.022949 152.366119,478.724670 151.067841,477.659241 149.586639,476.867493 147.979462,476.380005 146.308075,476.215393" />
			</g>
			<!--Layer: Circle_020_Lines-->
			<g id="Circle_020_Lines" />
		</g>
	</g>
</svg>
