{
    "asset" : {
        "generator" : "Khronos glTF Blender I/O v1.7.33",
        "version" : "2.0"
    },
    "scene" : 0,
    "scenes" : [
        {
            "extras" : {
                "asset_manager" : {},
                "skinify" : {
                    "connect_mesh" : 0,
                    "connect_parents" : 0,
                    "generate_all" : 0,
                    "thickness" : 0.800000011920929,
                    "finger_thickness" : 0.25,
                    "apply_mod" : 1,
                    "parent_armature" : 1,
                    "sub_level" : 1
                },
                "blenderkitUI" : {
                    "assetbar_on" : 0,
                    "turn_off" : 0
                },
                "pbr_material_settings" : {},
                "uuid" : "545d480d-6026-49d3-ba28-abe7907529a8",
                "assets reported" : {},
                "b_export" : 1,
                "export_path" : "/media/nafergo/KINGSTON/Viriato-3D/aframe/1/",
                "s_output" : "exporting...",
                "b_bake_lightmap" : 0,
                "b_settings" : 1,
                "b_renderer" : 1,
                "b_player" : 1,
                "b_raycast" : 1,
                "b_stats" : 0,
                "b_joystick" : 0,
                "b_cubemap" : 1,
                "b_camera_cube" : 1,
                "b_show_env_sky" : 0,
                "b_cubemap_background" : 0,
                "b_cast_shadows" : 1,
                "b_use_default_lights" : 1,
                "b_aa" : 1,
                "b_colorManagement" : 1,
                "b_physicallyCorrectLights" : 1,
                "b_interactive" : 1,
                "f_player_speed" : 0.5,
                "f_player_height" : 1.899999976158142,
                "thumbs_mats_dielectrics_node" : 26
            },
            "name" : "Scene",
            "nodes" : [
                0
            ]
        }
    ],
    "nodes" : [
        {
            "extras" : {
                "ant_landscape" : {}
            },
            "mesh" : 0,
            "name" : "estrada",
            "rotation" : [
                0,
                -0.35661497712135315,
                0,
                0.9342515468597412
            ],
            "scale" : [
                0.6545313596725464,
                0.6545313596725464,
                0.6545313596725464
            ]
        }
    ],
    "materials" : [
        {
            "doubleSided" : true,
            "name" : "road",
            "pbrMetallicRoughness" : {
                "baseColorTexture" : {
                    "index" : 0
                },
                "metallicFactor" : 0,
                "roughnessFactor" : 0.5
            }
        }
    ],
    "meshes" : [
        {
            "name" : "Plane.001",
            "primitives" : [
                {
                    "attributes" : {
                        "POSITION" : 0,
                        "NORMAL" : 1,
                        "TANGENT" : 2,
                        "TEXCOORD_0" : 3
                    },
                    "indices" : 4,
                    "material" : 0
                }
            ]
        }
    ],
    "textures" : [
        {
            "sampler" : 0,
            "source" : 0
        }
    ],
    "images" : [
        {
            "bufferView" : 5,
            "mimeType" : "image/jpeg",
            "name" : "TexturesCom_FloorStreets0078_1_seamless_S"
        }
    ],
    "accessors" : [
        {
            "bufferView" : 0,
            "componentType" : 5126,
            "count" : 305,
            "max" : [
                156.18435668945312,
                0,
                183.24600219726562
            ],
            "min" : [
                -253.35537719726562,
                0,
                -217.426025390625
            ],
            "type" : "VEC3"
        },
        {
            "bufferView" : 1,
            "componentType" : 5126,
            "count" : 305,
            "type" : "VEC3"
        },
        {
            "bufferView" : 2,
            "componentType" : 5126,
            "count" : 305,
            "type" : "VEC4"
        },
        {
            "bufferView" : 3,
            "componentType" : 5126,
            "count" : 305,
            "type" : "VEC2"
        },
        {
            "bufferView" : 4,
            "componentType" : 5123,
            "count" : 594,
            "type" : "SCALAR"
        }
    ],
    "bufferViews" : [
        {
            "buffer" : 0,
            "byteLength" : 3660,
            "byteOffset" : 0
        },
        {
            "buffer" : 0,
            "byteLength" : 3660,
            "byteOffset" : 3660
        },
        {
            "buffer" : 0,
            "byteLength" : 4880,
            "byteOffset" : 7320
        },
        {
            "buffer" : 0,
            "byteLength" : 2440,
            "byteOffset" : 12200
        },
        {
            "buffer" : 0,
            "byteLength" : 1188,
            "byteOffset" : 14640
        },
        {
            "buffer" : 0,
            "byteLength" : 337665,
            "byteOffset" : 15828
        }
    ],
    "samplers" : [
        {
            "magFilter" : 9729,
            "minFilter" : 9987
        }
    ],
    "buffers" : [
        {
            "byteLength" : 353496,
            "uri" : "data:application/octet-stream;base64,"
        }
    ]
}
