{
    "asset" : {
        "generator" : "Khronos glTF Blender I/O v1.7.33",
        "version" : "2.0"
    },
    "scene" : 0,
    "scenes" : [
        {
            "extras" : {
                "asset_manager" : {},
                "skinify" : {
                    "connect_mesh" : 0,
                    "connect_parents" : 0,
                    "generate_all" : 0,
                    "thickness" : 0.800000011920929,
                    "finger_thickness" : 0.25,
                    "apply_mod" : 1,
                    "parent_armature" : 1,
                    "sub_level" : 1
                },
                "blenderkitUI" : {
                    "assetbar_on" : 0,
                    "turn_off" : 0
                },
                "pbr_material_settings" : {},
                "uuid" : "545d480d-6026-49d3-ba28-abe7907529a8",
                "assets reported" : {},
                "b_export" : 1,
                "export_path" : "/media/nafergo/KINGSTON/Viriato-3D/aframe/1/",
                "s_output" : "exporting...",
                "b_bake_lightmap" : 0,
                "b_settings" : 1,
                "b_renderer" : 1,
                "b_player" : 1,
                "b_raycast" : 1,
                "b_stats" : 0,
                "b_joystick" : 0,
                "b_cubemap" : 1,
                "b_camera_cube" : 1,
                "b_show_env_sky" : 0,
                "b_cubemap_background" : 0,
                "b_cast_shadows" : 1,
                "b_use_default_lights" : 1,
                "b_aa" : 1,
                "b_colorManagement" : 1,
                "b_physicallyCorrectLights" : 1,
                "b_interactive" : 1,
                "f_player_speed" : 0.5,
                "f_player_height" : 1.899999976158142,
                "thumbs_mats_dielectrics_node" : 26
            },
            "name" : "Scene",
            "nodes" : [
                0
            ]
        }
    ],
    "nodes" : [
        {
            "extras" : {
                "ant_landscape" : {}
            },
            "mesh" : 0,
            "name" : "Plane",
            "scale" : [
                0.6545313596725464,
                0.6545313596725464,
                0.6545313596725464
            ]
        }
    ],
    "materials" : [
        {
            "doubleSided" : true,
            "name" : "terra",
            "pbrMetallicRoughness" : {
                "baseColorTexture" : {
                    "index" : 0
                },
                "metallicFactor" : 0
            }
        },
        {
            "doubleSided" : true,
            "name" : "grass",
            "pbrMetallicRoughness" : {
                "baseColorTexture" : {
                    "index" : 1
                },
                "metallicFactor" : 0
            }
        }
    ],
    "meshes" : [
        {
            "name" : "Plane",
            "primitives" : [
                {
                    "attributes" : {
                        "POSITION" : 0,
                        "NORMAL" : 1,
                        "TEXCOORD_0" : 2
                    },
                    "indices" : 3,
                    "material" : 0
                },
                {
                    "attributes" : {
                        "POSITION" : 4,
                        "NORMAL" : 5,
                        "TEXCOORD_0" : 6
                    },
                    "indices" : 7,
                    "material" : 1
                }
            ]
        }
    ],
    "textures" : [
        {
            "sampler" : 0,
            "source" : 0
        },
        {
            "sampler" : 0,
            "source" : 1
        }
    ],
    "images" : [
        {
            "bufferView" : 4,
            "mimeType" : "image/jpeg",
            "name" : "TexturesCom_SoilMud0091_1_seamless_S"
        },
        {
            "bufferView" : 9,
            "mimeType" : "image/jpeg",
            "name" : "TexturesCom_Grass0130_1_seamless_S"
        }
    ],
    "accessors" : [
        {
            "bufferView" : 0,
            "componentType" : 5126,
            "count" : 228,
            "max" : [
                266.16912841796875,
                7.330713272094727,
                280.0223693847656
            ],
            "min" : [
                -273.0491027832031,
                -6.4867448806762695,
                -270.9057922363281
            ],
            "type" : "VEC3"
        },
        {
            "bufferView" : 1,
            "componentType" : 5126,
            "count" : 228,
            "type" : "VEC3"
        },
        {
            "bufferView" : 2,
            "componentType" : 5126,
            "count" : 228,
            "type" : "VEC2"
        },
        {
            "bufferView" : 3,
            "componentType" : 5123,
            "count" : 384,
            "type" : "SCALAR"
        },
        {
            "bufferView" : 5,
            "componentType" : 5126,
            "count" : 8,
            "max" : [
                200.63148498535156,
                -0.23362885415554047,
                209.79208374023438
            ],
            "min" : [
                -204.871826171875,
                -0.23362885415554047,
                -202.19464111328125
            ],
            "type" : "VEC3"
        },
        {
            "bufferView" : 6,
            "componentType" : 5126,
            "count" : 8,
            "type" : "VEC3"
        },
        {
            "bufferView" : 7,
            "componentType" : 5126,
            "count" : 8,
            "type" : "VEC2"
        },
        {
            "bufferView" : 8,
            "componentType" : 5123,
            "count" : 18,
            "type" : "SCALAR"
        }
    ],
    "bufferViews" : [
        {
            "buffer" : 0,
            "byteLength" : 2736,
            "byteOffset" : 0
        },
        {
            "buffer" : 0,
            "byteLength" : 2736,
            "byteOffset" : 2736
        },
        {
            "buffer" : 0,
            "byteLength" : 1824,
            "byteOffset" : 5472
        },
        {
            "buffer" : 0,
            "byteLength" : 768,
            "byteOffset" : 7296
        },
        {
            "buffer" : 0,
            "byteLength" : 341274,
            "byteOffset" : 8064
        },
        {
            "buffer" : 0,
            "byteLength" : 96,
            "byteOffset" : 349340
        },
        {
            "buffer" : 0,
            "byteLength" : 96,
            "byteOffset" : 349436
        },
        {
            "buffer" : 0,
            "byteLength" : 64,
            "byteOffset" : 349532
        },
        {
            "buffer" : 0,
            "byteLength" : 36,
            "byteOffset" : 349596
        },
        {
            "buffer" : 0,
            "byteLength" : 281395,
            "byteOffset" : 349632
        }
    ],
    "samplers" : [
        {
            "magFilter" : 9729,
            "minFilter" : 9987
        }
    ],
    "buffers" : [
        {
            "byteLength" : 631028,
            "uri" : "data:application/octet-stream;base64,"
        }
    ]
}
