{
    "asset" : {
        "generator" : "Khronos glTF Blender I/O v1.7.33",
        "version" : "2.0"
    },
    "scene" : 0,
    "scenes" : [
        {
            "extras" : {
                "asset_manager" : {},
                "skinify" : {
                    "connect_mesh" : 0,
                    "connect_parents" : 0,
                    "generate_all" : 0,
                    "thickness" : 0.800000011920929,
                    "finger_thickness" : 0.25,
                    "apply_mod" : 1,
                    "parent_armature" : 1,
                    "sub_level" : 1
                },
                "blenderkitUI" : {
                    "assetbar_on" : 0,
                    "turn_off" : 0
                },
                "pbr_material_settings" : {},
                "uuid" : "545d480d-6026-49d3-ba28-abe7907529a8",
                "assets reported" : {},
                "b_export" : 1,
                "export_path" : "/media/nafergo/KINGSTON/Viriato-3D/aframe/1/",
                "s_output" : "exporting...",
                "b_bake_lightmap" : 0,
                "b_settings" : 1,
                "b_renderer" : 1,
                "b_player" : 1,
                "b_raycast" : 1,
                "b_stats" : 0,
                "b_joystick" : 0,
                "b_cubemap" : 1,
                "b_camera_cube" : 1,
                "b_show_env_sky" : 0,
                "b_cubemap_background" : 0,
                "b_cast_shadows" : 1,
                "b_use_default_lights" : 1,
                "b_aa" : 1,
                "b_colorManagement" : 1,
                "b_physicallyCorrectLights" : 1,
                "b_interactive" : 1,
                "f_player_speed" : 0.5,
                "f_player_height" : 1.899999976158142,
                "thumbs_mats_dielectrics_node" : 26
            },
            "name" : "Scene",
            "nodes" : [
                0
            ]
        }
    ],
    "nodes" : [
        {
            "extras" : {
                "ant_landscape" : {}
            },
            "mesh" : 0,
            "name" : "Plane.001",
            "scale" : [
                0.6545313596725464,
                0.6545313596725464,
                0.6545313596725464
            ]
        }
    ],
    "materials" : [
        {
            "doubleSided" : true,
            "name" : "agua",
            "pbrMetallicRoughness" : {
                "baseColorFactor" : [
                    0.01739811897277832,
                    0.04758928716182709,
                    0.8000000715255737,
                    1
                ],
                "metallicFactor" : 0,
                "roughnessFactor" : 0.5
            }
        }
    ],
    "meshes" : [
        {
            "name" : "Plane.002",
            "primitives" : [
                {
                    "attributes" : {
                        "POSITION" : 0,
                        "NORMAL" : 1,
                        "TANGENT" : 2,
                        "TEXCOORD_0" : 3
                    },
                    "indices" : 4,
                    "material" : 0
                }
            ]
        }
    ],
    "accessors" : [
        {
            "bufferView" : 0,
            "componentType" : 5126,
            "count" : 112,
            "max" : [
                226.38580322265625,
                2.478140354156494,
                238.00196838378906
            ],
            "min" : [
                -231.88607788085938,
                -2.478140354156494,
                -230.22190856933594
            ],
            "type" : "VEC3"
        },
        {
            "bufferView" : 1,
            "componentType" : 5126,
            "count" : 112,
            "type" : "VEC3"
        },
        {
            "bufferView" : 2,
            "componentType" : 5126,
            "count" : 112,
            "type" : "VEC4"
        },
        {
            "bufferView" : 3,
            "componentType" : 5126,
            "count" : 112,
            "type" : "VEC2"
        },
        {
            "bufferView" : 4,
            "componentType" : 5123,
            "count" : 192,
            "type" : "SCALAR"
        }
    ],
    "bufferViews" : [
        {
            "buffer" : 0,
            "byteLength" : 1344,
            "byteOffset" : 0
        },
        {
            "buffer" : 0,
            "byteLength" : 1344,
            "byteOffset" : 1344
        },
        {
            "buffer" : 0,
            "byteLength" : 1792,
            "byteOffset" : 2688
        },
        {
            "buffer" : 0,
            "byteLength" : 896,
            "byteOffset" : 4480
        },
        {
            "buffer" : 0,
            "byteLength" : 384,
            "byteOffset" : 5376
        }
    ],
    "buffers" : [
        {
            "byteLength" : 5760,
            "uri" : "data:application/octet-stream;base64,"
        }
    ]
}
